<svg width="50" height="50" viewBox="0 0 60 60" fill="none" xmlns="http://www.w3.org/2000/svg">
<path d="M55 31.25V15C55 13.6739 54.4732 12.4021 53.5355 11.4645C52.5979 10.5268 51.3261 10 50 10H10C8.67392 10 7.40215 10.5268 6.46447 11.4645C5.52678 12.4021 5 13.6739 5 15V45C5 47.75 7.25 50 10 50H28.75" stroke="white" stroke-width="3" stroke-linecap="round" stroke-linejoin="round"/>
<path d="M55 17.5L32.575 31.75C31.8032 32.2336 30.9108 32.49 30 32.49C29.0892 32.49 28.1968 32.2336 27.425 31.75L5 17.5" stroke="white" stroke-width="3" stroke-linecap="round" stroke-linejoin="round"/>
<path d="M54.2708 45.1042H38.2292C36.9635 45.1042 35.9375 46.1303 35.9375 47.3959V55.4167C35.9375 56.6824 36.9635 57.7084 38.2292 57.7084H54.2708C55.5365 57.7084 56.5625 56.6824 56.5625 55.4167V47.3959C56.5625 46.1303 55.5365 45.1042 54.2708 45.1042Z" stroke="white" stroke-width="3" stroke-linecap="round" stroke-linejoin="round"/>
<path d="M40.521 45.1042V40.5209C40.521 39.0014 41.1246 37.5442 42.199 36.4698C43.2735 35.3954 44.7307 34.7917 46.2502 34.7917C47.7696 34.7917 49.2269 35.3954 50.3013 36.4698C51.3757 37.5442 51.9793 39.0014 51.9793 40.5209V45.1042" stroke="white" stroke-width="3" stroke-linecap="round" stroke-linejoin="round"/>
</svg>
